# xmcd
#
# Track frame offsets:
#	150
#	18926
#	34554
#	50680
#	70669
#	80402
#	94359
#	109333
#	125171
#	134367
#	146077
#	161685
#	175891
#	187928
#	207165
#
# Disc length: 2977 seconds
#
# Revision: 0
# Processed by: cddbd v1.5.2PL0 Copyright (c) Steve Scherf et al.
# Submitted via: EasyCDDAExtractor 10.0.2.1
#
DISCID=d50b9f0f
DTITLE=Alabama - Songs Of Inspiration
DYEAR=2006
DGENRE=Country
TTITLE0=His Eye Is On The Sparrow
TTITLE1=In The Garden
TTITLE2=Amazing Grace
TTITLE3=How Great Thou Art
TTITLE4=I Need Thee
TTITLE5=Old Shep
TTITLE6=Jesus Loves Me
TTITLE7=Silent Night
TTITLE8=I Am The Man Thomas
TTITLE9=Rock Of Ages
TTITLE10=In The Sweet By And By
TTITLE11=The Old Rugged Cross
TTITLE12=What Will I Leave Behind
TTITLE13=One Big Heaven
TTITLE14=Rain
EXTD=
EXTT0=
EXTT1=
EXTT2=
EXTT3=
EXTT4=
EXTT5=
EXTT6=
EXTT7=
EXTT8=
EXTT9=
EXTT10=
EXTT11=
EXTT12=
EXTT13=
EXTT14=
PLAYORDER=
